<?xml version="1.0" standalone="no"?><!DOCTYPE svg PUBLIC "-//W3C//DTD SVG 1.1//EN" "http://www.w3.org/Graphics/SVG/1.1/DTD/svg11.dtd"><svg height="91" node-id="1" sillyvg="true" template-height="91" template-width="169" version="1.1" viewBox="0 0 169 91" width="169" xmlns="http://www.w3.org/2000/svg" xmlns:xlink="http://www.w3.org/1999/xlink"><defs node-id="72"><linearGradient gradientUnits="objectBoundingBox" id="linear-gradient" node-id="3" spreadMethod="pad" x1="0.5" x2="0.5" y1="0" y2="0.921"><stop offset="0" stop-color="#ffe0e1"></stop><stop offset="1" stop-color="#ffffff" stop-opacity="0"></stop></linearGradient><linearGradient gradientUnits="objectBoundingBox" id="linearGradient1" node-id="80" spreadMethod="pad" x1="0.327" x2="0.66" y1="0.322" y2="1"><stop offset="0" stop-color="#ffd3d3"></stop><stop offset="1" stop-color="#ffafaf"></stop></linearGradient><linearGradient gradientUnits="objectBoundingBox" id="linearGradient2" node-id="87" spreadMethod="pad" x1="-1.262" x2="4.772" y1="-2.019" y2="0"><stop offset="0" stop-color="#ffd3d3"></stop><stop offset="1" stop-color="#ffafaf"></stop></linearGradient><linearGradient gradientUnits="objectBoundingBox" id="linearGradient3" node-id="94" spreadMethod="pad" x1="-1.262" x2="4.772" y1="-2.019" y2="0"><stop offset="0" stop-color="#ffd3d3"></stop><stop offset="1" stop-color="#ffafaf"></stop></linearGradient><linearGradient gradientUnits="objectBoundingBox" id="linear-gradient-3" node-id="9" spreadMethod="pad" x1="-1.262" x2="4.772" y1="-2.019" y2="0"><stop offset="0" stop-color="#ffd3d3"></stop><stop offset="1" stop-color="#ffafaf"></stop></linearGradient><linearGradient gradientUnits="objectBoundingBox" id="linearGradient4" node-id="107" spreadMethod="pad" x1="0.327" x2="0.66" y1="0.322" y2="1"><stop offset="0" stop-color="#ffd3d3"></stop><stop offset="1" stop-color="#ffafaf"></stop></linearGradient><linearGradient gradientUnits="objectBoundingBox" id="linearGradient5" node-id="114" spreadMethod="pad" x1="0.327" x2="0.66" y1="0.322" y2="1"><stop offset="0" stop-color="#ffd3d3"></stop><stop offset="1" stop-color="#ffafaf"></stop></linearGradient><linearGradient gradientUnits="objectBoundingBox" id="linearGradient6" node-id="121" spreadMethod="pad" x1="0.327" x2="0.66" y1="0.322" y2="1"><stop offset="0" stop-color="#ffd3d3"></stop><stop offset="1" stop-color="#ffafaf"></stop></linearGradient><linearGradient gradientUnits="objectBoundingBox" id="linearGradient7" node-id="128" spreadMethod="pad" x1="0.327" x2="0.66" y1="0.322" y2="1"><stop offset="0" stop-color="#ffd3d3"></stop><stop offset="1" stop-color="#ffafaf"></stop></linearGradient><linearGradient gradientUnits="objectBoundingBox" id="linear-gradient-2" node-id="6" spreadMethod="pad" x1="0.327" x2="0.66" y1="0.322" y2="1"><stop offset="0" stop-color="#ffd3d3"></stop><stop offset="1" stop-color="#ffafaf"></stop></linearGradient><linearGradient gradientUnits="objectBoundingBox" id="linear-gradient-11" node-id="10" spreadMethod="pad" x1="0.5" x2="0.5" y1="1.224" y2="-0.517"><stop offset="0" stop-color="#ffb2b2"></stop><stop offset="1" stop-color="#ffffff"></stop></linearGradient><linearGradient gradientUnits="objectBoundingBox" id="linearGradient8" node-id="147" spreadMethod="pad" x1="0.7293097" x2="0.21108964" y1="0.9694117" y2="0.6702847"><stop offset="0" stop-color="#ffffff" stop-opacity="0"></stop><stop offset="1" stop-color="#fca9a9"></stop></linearGradient><linearGradient gradientUnits="objectBoundingBox" id="linear-gradient-12" node-id="13" spreadMethod="pad" x1="0.7293097" x2="0.21108964" y1="0.9694117" y2="0.6702847"><stop offset="0" stop-color="#ffffff" stop-opacity="0"></stop><stop offset="1" stop-color="#fca9a9"></stop></linearGradient><linearGradient gradientUnits="objectBoundingBox" id="linear-gradient-14" node-id="16" spreadMethod="pad" x1="0.5" x2="1.077" y1="0.912" y2="0.191"><stop offset="0" stop-color="#ff9699"></stop><stop offset="0.291" stop-color="#ffb5b7"></stop><stop offset="1" stop-color="#ffebeb"></stop></linearGradient><linearGradient gradientUnits="objectBoundingBox" id="linear-gradient-15" node-id="20" spreadMethod="pad" x1="0.5" x2="0.5" y1="0.912" y2="0.082"><stop offset="0" stop-color="#ffc2c4"></stop><stop offset="0.00000011920929" stop-color="#ffb9bb"></stop><stop offset="1" stop-color="#ffe6e6"></stop></linearGradient><linearGradient gradientUnits="objectBoundingBox" id="linear-gradient-16" node-id="24" spreadMethod="pad" x1="0.5" x2="0.5" y1="0.912" y2="0.082"><stop offset="0" stop-color="#fffafa"></stop><stop offset="1" stop-color="#fffafa"></stop></linearGradient></defs><g node-id="181"><g node-id="194"><path d="M 25.00 68.80 L 145.60 68.80 L 145.30 66.10 L 144.50 63.10 L 143.20 60.20 L 141.40 57.60 L 138.20 54.70 L 136.30 53.60 L 134.20 52.90 L 131.80 52.60 L 129.20 52.70 L 129.30 50.40 L 129.00 48.40 L 128.20 46.50 L 125.60 43.30 L 123.70 41.90 L 120.70 40.40 L 117.20 39.30 L 113.60 38.80 L 110.10 39.00 L 107.80 39.40 L 103.90 41.20 L 102.10 38.70 L 100.20 36.80 L 98.20 35.40 L 96.00 34.40 L 91.30 33.60 L 87.80 33.80 L 84.60 34.70 L 81.80 36.00 L 79.60 37.60 L 78.40 38.90 L 77.60 41.20 L 75.80 39.70 L 73.70 38.50 L 71.50 37.80 L 66.80 37.50 L 62.20 38.60 L 58.50 40.90 L 57.10 42.40 L 56.20 44.10 L 55.70 46.00 L 52.90 44.90 L 48.10 44.10 L 45.90 44.30 L 42.20 45.50 L 40.60 46.40 L 38.30 48.80 L 37.50 50.20 L 36.90 53.00 L 33.20 53.70 L 31.70 54.50 L 29.70 56.30 L 28.00 58.60 L 26.70 61.20 L 25.80 63.80 L 25.00 68.80 Z" fill="url(#linear-gradient)" fill-rule="nonzero" group-id="1,14" id="路径-19" node-id="29" stroke="none" target-height="35.200005" target-width="120.600006" target-x="25" target-y="33.6"></path></g><g node-id="195"><path d="M 40.60 20.20 L 48.10 20.20 L 48.20 18.30 L 35.30 18.30 L 35.30 20.20 L 40.60 20.20 Z" fill="url(#linearGradient1)" fill-rule="nonzero" group-id="1,15" id="路径_11442" node-id="30" stroke="none" target-height="1.9000015" target-width="12.900002" target-x="35.3" target-y="18.3"></path></g><g node-id="196"><path d="M 47.00 10.30 L 36.40 10.30 L 36.40 18.30 L 47.00 18.30 Z" fill="#ffffff" fill-rule="nonzero" group-id="1,16" id="路径_11443" node-id="31" stroke="none" target-height="7.999999" target-width="10.599998" target-x="36.4" target-y="10.3"></path></g><g node-id="197"><g node-id="217"><path d="M 40.10 9.00 L 48.10 9.00 L 41.70 4.90 L 35.10 9.00 L 40.10 9.00 Z M 37.50 31.50 L 45.10 28.90 L 47.40 27.50 L 47.00 22.80 L 36.40 22.80 L 35.70 32.50 L 37.50 31.50 Z M 48.00 35.60 L 45.50 37.30 L 37.50 40.40 L 35.00 42.00 L 34.30 52.50 L 37.50 50.30 L 45.10 47.20 L 48.60 44.70 L 47.90 35.60 Z M 41.30 4.20 L 41.30 4.20 Z" fill="#ffa8ab" fill-rule="nonzero" group-id="1,17,37" id="路径_11445" node-id="33" stroke="none" target-height="48.3" target-width="14.299999" target-x="34.3" target-y="4.2"></path></g><path d="M 41.60 4.30 L 41.50 -0.00 L 41.30 4.40 L 41.60 4.90 L 41.60 4.40 Z" fill="#ffa8ab" fill-rule="nonzero" group-id="1,17,38" id="路径_11446" node-id="34" stroke="none" target-height="4.9" target-width="0.29999924" target-x="41.3" target-y="-0"></path></g><g node-id="198"><path d="M 44.80 43.30 L 44.60 44.10 L 43.60 45.10 L 42.00 45.10 L 41.00 44.10 L 41.00 42.60 L 42.00 41.50 L 43.60 41.50 L 44.60 42.60 L 44.80 43.30 Z" fill="#ff979a" fill-rule="nonzero" group-id="1,18" id="椭圆_251" node-id="35" stroke="none" target-height="3.5999985" target-width="3.7999992" target-x="41" target-y="41.5"></path></g><g node-id="199"><path d="M 42.80 41.40 L 43.80 42.00 L 44.30 43.30 L 43.80 44.60 L 42.50 45.30 L 44.20 44.70 L 44.80 43.30 L 44.20 41.90 L 42.80 41.40 Z" fill="url(#linearGradient2)" fill-rule="nonzero" group-id="1,19" id="路径_11630" node-id="36" stroke="none" target-height="3.8999977" target-width="2.2999992" target-x="42.5" target-y="41.4"></path></g><g node-id="200"><path d="M 44.80 34.40 L 44.60 35.20 L 43.60 36.20 L 42.00 36.20 L 41.00 35.20 L 41.00 33.60 L 42.00 32.60 L 43.60 32.60 L 44.60 33.60 L 44.80 34.40 Z" fill="#ff979a" fill-rule="nonzero" group-id="1,20" id="椭圆_252" node-id="37" stroke="none" target-height="3.6000023" target-width="3.7999992" target-x="41" target-y="32.6"></path></g><g node-id="201"><path d="M 42.80 32.40 L 43.80 33.10 L 44.30 34.40 L 43.80 35.70 L 42.50 36.30 L 44.20 35.80 L 44.80 34.40 L 44.20 33.00 L 42.80 32.40 Z" fill="url(#linearGradient3)" fill-rule="nonzero" group-id="1,21" id="路径_11631" node-id="38" stroke="none" target-height="3.8999977" target-width="2.2999992" target-x="42.5" target-y="32.4"></path></g><g node-id="202"><path d="M 44.60 14.20 L 44.40 15.30 L 43.70 16.20 L 42.80 16.80 L 41.70 17.10 L 40.60 16.80 L 39.70 16.20 L 39.10 15.30 L 38.80 14.20 L 39.10 13.00 L 39.70 12.10 L 40.60 11.50 L 41.70 11.30 L 42.80 11.50 L 43.70 12.10 L 44.40 13.00 L 44.60 14.20 Z" fill="#ff979a" fill-rule="nonzero" group-id="1,22" id="椭圆_253" node-id="39" stroke="none" target-height="5.8" target-width="5.799999" target-x="38.8" target-y="11.3"></path></g><g node-id="203"><path d="M 41.70 11.30 L 41.30 11.30 L 43.10 12.30 L 43.90 14.20 L 43.10 16.10 L 41.30 17.00 L 42.80 16.80 L 43.70 16.20 L 44.30 15.30 L 44.50 14.20 L 44.30 13.10 L 43.70 12.10 L 42.80 11.50 L 41.70 11.30 Z" fill="url(#linear-gradient-3)" fill-rule="nonzero" group-id="1,23" id="路径_11632" node-id="40" stroke="none" target-height="5.7" target-width="3.2000008" target-x="41.3" target-y="11.3"></path></g><g node-id="204"><path d="M 134.20 86.00 L 149.60 67.30 L 151.50 65.10 L 153.50 63.40 L 155.10 63.00 L 156.80 63.10 L 168.50 64.40 L 156.60 66.10 L 152.70 69.80 L 136.40 88.30 L 134.20 86.00 Z" fill="url(#linearGradient4)" fill-rule="nonzero" group-id="1,24" id="路径_11633" node-id="41" stroke="none" target-height="25.300003" target-width="34.300003" target-x="134.2" target-y="63"></path></g><g node-id="205"><g node-id="219"><path d="M 135.90 67.50 L 136.00 67.30 Z M 141.10 34.30 L 141.10 34.30 Z M 136.70 62.30 L 136.70 62.40 Z" fill="#ff979a" fill-rule="nonzero" group-id="1,25,39" id="路径_11635" node-id="43" stroke="none" target-height="33.2" target-width="5.200012" target-x="135.9" target-y="34.3"></path></g><g node-id="220"><path d="M 136.10 69.10 L 136.80 60.80 L 138.10 51.30 L 143.40 23.80 L 141.70 30.90 L 137.30 54.90 L 136.10 65.30 L 135.70 72.80 L 135.80 74.80 L 136.10 69.10 Z M 139.50 79.30 L 139.50 79.10 Z M 154.90 51.30 L 154.90 51.20 Z M 141.80 74.90 L 141.80 75.00 Z" fill="#ff979a" fill-rule="nonzero" group-id="1,25,40" id="路径_11636" node-id="44" stroke="none" target-height="55.500004" target-width="19.199997" target-x="135.7" target-y="23.8"></path></g><path d="M 139.10 80.80 L 142.50 73.60 L 146.70 65.50 L 160.40 42.60 L 156.60 48.50 L 146.60 65.30 L 141.80 74.20 L 138.30 81.90 L 137.00 85.80 L 139.10 80.80 Z" fill="#ff979a" fill-rule="nonzero" group-id="1,25,41" id="路径_11637" node-id="45" stroke="none" target-height="43.200005" target-width="23.399994" target-x="137" target-y="42.6"></path></g><g node-id="206"><path d="M 134.00 85.40 L 131.60 74.70 L 129.70 64.00 L 129.30 58.70 L 129.30 53.50 L 129.70 48.30 L 130.60 43.10 L 132.80 52.90 L 134.40 62.80 L 135.20 72.30 L 135.30 81.80 L 134.00 85.40 Z" fill="url(#linearGradient5)" fill-rule="nonzero" group-id="1,26" id="路径_11638" node-id="46" stroke="none" target-height="42.300003" target-width="6" target-x="129.3" target-y="43.1"></path></g><g node-id="207"><path d="M 141.30 52.20 L 147.90 40.60 L 146.50 48.20 L 142.80 63.10 L 134.70 86.40 L 131.80 85.10 L 135.40 70.10 L 139.00 58.10 Z" fill="url(#linearGradient6)" fill-rule="nonzero" group-id="1,27" id="路径_11640" node-id="47" stroke="none" target-height="45.800003" target-width="16.09999" target-x="131.8" target-y="40.6"></path></g><g node-id="208"><path d="M 14.70 75.20 L 12.40 70.70 L 9.90 67.20 L 0.00 64.40 L 11.90 64.60 L 13.80 65.20 L 15.30 67.00 L 16.50 69.00 L 21.70 80.00 L 19.10 83.40 L 14.70 75.20 Z" fill="url(#linearGradient7)" fill-rule="nonzero" group-id="1,28" id="路径_11642" node-id="48" stroke="none" target-height="19" target-width="21.7" target-x="0" target-y="64.4"></path></g><g node-id="209"><g node-id="222"><path d="M 22.00 78.60 L 22.00 78.50 Z M 11.90 48.30 L 11.90 48.30 Z M 21.10 73.80 L 21.10 73.80 Z" fill="#ff979a" fill-rule="nonzero" group-id="1,29,42" id="路径_11644" node-id="50" stroke="none" target-height="30.3" target-width="10.1" target-x="11.9" target-y="48.3"></path></g><path d="M 22.60 80.10 L 20.60 72.20 L 18.50 65.70 L 13.00 50.50 L 8.40 38.70 L 13.40 52.00 L 19.60 70.10 L 23.70 85.30 L 22.60 80.00 Z" fill="#ff979a" fill-rule="nonzero" group-id="1,29,43" id="路径_11645" node-id="51" stroke="none" target-height="46.600002" target-width="15.300001" target-x="8.4" target-y="38.7"></path></g><g node-id="210"><path d="M 22.90 46.50 L 25.60 54.70 L 26.70 63.30 L 26.60 72.30 L 25.90 81.20 L 23.30 81.30 L 21.90 72.50 L 21.10 63.60 L 21.20 57.80 L 21.80 52.20 L 22.90 46.50 Z" fill="url(#linear-gradient-2)" fill-rule="nonzero" group-id="1,30" id="路径_11647" node-id="52" stroke="none" target-height="34.800003" target-width="5.6000004" target-x="21.1" target-y="46.5"></path></g><g node-id="211"><path d="M 12.40 91.40 L 13.40 89.80 L 14.80 88.60 L 16.60 87.90 L 18.50 87.90 L 17.90 86.00 L 17.80 83.90 L 18.20 81.90 L 19.10 80.10 L 20.50 78.60 L 22.20 77.50 L 24.20 76.90 L 26.80 76.70 L 27.90 74.50 L 29.90 72.90 L 32.90 72.20 L 35.90 73.10 L 37.50 71.80 L 40.40 71.10 L 43.20 72.00 L 44.30 72.90 L 45.20 74.20 L 45.70 75.50 L 45.60 78.20 L 47.40 77.70 L 49.10 77.70 L 50.70 78.00 L 52.30 78.80 L 53.60 79.90 L 54.60 81.40 L 55.20 82.70 L 55.30 85.60 L 58.70 85.30 L 61.90 86.40 L 63.20 84.40 L 64.80 82.70 L 66.40 81.70 L 68.20 81.00 L 70.10 80.80 L 72.10 81.00 L 75.50 82.60 L 77.90 85.40 L 78.90 88.90 L 81.00 86.50 L 82.70 85.50 L 85.10 84.60 L 87.80 84.30 L 91.80 84.80 L 96.20 86.90 L 97.70 85.10 L 99.20 84.30 L 102.50 83.70 L 104.70 84.00 L 103.40 79.00 L 103.60 77.80 L 104.40 76.60 L 105.70 75.60 L 107.20 75.10 L 110.90 75.40 L 112.80 69.90 L 113.90 68.20 L 116.20 66.60 L 118.00 66.10 L 120.60 65.90 L 124.40 66.40 L 126.80 67.30 L 129.60 69.40 L 132.00 67.60 L 135.00 66.70 L 138.10 67.40 L 139.70 68.40 L 141.40 71.00 L 141.80 72.30 L 141.90 75.40 L 144.40 75.30 L 145.80 75.80 L 147.50 77.10 L 148.20 78.30 L 148.80 81.20 L 148.50 82.40 L 147.80 83.70 L 149.60 83.70 L 151.20 84.30 L 152.70 85.20 L 153.80 86.60 L 154.90 89.40 L 154.90 90.30 L 154.20 91.30 L 93.40 91.40 Z" fill="url(#linear-gradient-11)" fill-rule="nonzero" group-id="1,31" id="联合_45" node-id="53" stroke="none" target-height="25.5" target-width="142.5" target-x="12.4" target-y="65.9"></path></g><g node-id="212"><path d="M 17.50 62.60 L 18.40 62.10 L 19.00 61.20 L 19.20 60.30 L 19.10 59.20 L 13.40 44.70 L 12.80 43.80 L 11.00 43.00 L 10.00 43.10 L 9.10 43.70 L 8.30 45.50 L 8.50 46.60 L 14.10 61.10 L 14.70 62.00 L 15.50 62.60 L 16.50 62.80 L 17.50 62.60 Z" fill="#ffafb1" fill-rule="nonzero" group-id="1,32" id="路径_12990" node-id="54" stroke="none" target-height="19.8" target-width="10.900001" target-x="8.3" target-y="43"></path></g><g node-id="213"><path d="M 138.00 50.10 L 139.30 50.20 L 140.20 49.80 L 140.90 49.10 L 141.30 48.10 L 144.60 32.00 L 144.60 30.90 L 143.50 29.30 L 142.30 28.80 L 141.20 28.80 L 139.60 29.90 L 139.20 30.90 L 135.90 47.00 L 135.90 48.10 L 136.30 49.00 L 137.00 49.70 L 138.00 50.10 Z" fill="#ffafb1" fill-rule="nonzero" group-id="1,33" id="路径_13026" node-id="55" stroke="none" target-height="21.400002" target-width="8.700012" target-x="135.9" target-y="28.8"></path></g><path d="M 146.90 64.60 L 147.90 64.90 L 148.90 64.90 L 149.80 64.50 L 150.60 63.70 L 158.80 50.30 L 159.20 49.30 L 158.70 47.40 L 157.90 46.60 L 156.90 46.30 L 155.00 46.70 L 154.30 47.50 L 146.00 60.90 L 145.70 61.90 L 145.70 62.90 L 146.10 63.80 L 146.90 64.60 Z" fill="#ffafb1" fill-rule="nonzero" group-id="1,34" id="路径_13061" node-id="56" stroke="none" target-height="18.600002" target-width="13.5" target-x="145.7" target-y="46.3"></path></g><g node-id="182"><path d="M 62.10 65.40 L 74.00 62.40 L 74.00 87.00 L 60.00 91.40 Z" fill="#ffd8d8" fill-rule="evenodd" group-id="2" id="矩形" node-id="57" stroke="none" target-height="29" target-width="14" target-x="60" target-y="62.4"></path></g><g node-id="183"><path d="M 87.50 65.30 L 101.50 62.40 L 101.50 87.00 L 87.50 91.40 Z" fill="#ffd8d8" fill-rule="evenodd" group-id="3" id="矩形备份-9" node-id="58" stroke="none" target-height="29" target-width="14" target-x="87.5" target-y="62.4"></path></g><g node-id="184"><path d="M 87.50 65.20 L 74.00 62.40 L 74.00 87.00 L 87.50 91.40 Z" fill="#ffd8d8" fill-rule="evenodd" group-id="4" id="矩形备份-8" node-id="59" stroke="none" target-height="29" target-width="13.5" target-x="74" target-y="62.4"></path></g><g node-id="185"><path d="M 113.00 65.40 L 101.50 62.40 L 101.50 87.00 L 115.10 91.40 Z" fill="#ffd8d8" fill-rule="evenodd" group-id="5" id="矩形备份-19" node-id="60" stroke="none" target-height="29" target-width="13.599998" target-x="101.5" target-y="62.4"></path></g><g node-id="186"><path d="M 62.10 64.40 L 74.00 61.50 L 74.00 86.00 L 60.00 90.50 Z" fill="#ffefef" fill-rule="evenodd" group-id="6" id="矩形-2" node-id="61" stroke="none" target-height="29" target-width="14" target-x="60" target-y="61.5"></path></g><g node-id="187"><path d="M 87.50 64.30 L 101.50 61.50 L 101.50 86.00 L 87.50 90.50 Z" fill="#ffefef" fill-rule="evenodd" group-id="7" id="矩形备份-9-2" node-id="62" stroke="none" target-height="29" target-width="14" target-x="87.5" target-y="61.5"></path></g><g node-id="188"><path d="M 87.50 64.30 L 74.00 61.50 L 74.00 86.00 L 87.50 90.50 Z" fill="#ffd6d6" fill-rule="evenodd" group-id="8" id="矩形备份-8-2" node-id="63" stroke="none" target-height="29" target-width="13.5" target-x="74" target-y="61.5"></path></g><g node-id="189"><path d="M 113.00 64.40 L 101.50 61.50 L 101.50 86.00 L 115.10 90.50 Z" fill="#ffd6d6" fill-rule="evenodd" group-id="9" id="矩形备份-19-2" node-id="64" stroke="none" target-height="29" target-width="13.599998" target-x="101.5" target-y="61.5"></path></g><g node-id="190"><g node-id="215"><path d="M 70.40 48.40 L 107.60 27.70 L 124.50 58.20 L 87.30 78.80 Z" fill="url(#linearGradient8)" fill-rule="nonzero" group-id="10,35" id="蒙版" node-id="66" stroke="none" target-height="51.100002" target-width="54.1" target-x="70.4" target-y="27.7"></path></g><path d="M 70.40 48.40 L 107.60 27.70 L 124.50 58.20 L 87.30 78.80 Z" fill="url(#linear-gradient-12)" fill-rule="nonzero" group-id="10,36" id="矩形_3151" node-id="67" stroke="none" target-height="51.100002" target-width="54.1" target-x="70.4" target-y="27.7"></path></g><g node-id="191"><path d="M 87.30 79.00 L 94.70 70.40 L 100.30 63.10 L 104.40 57.00 L 107.20 51.80 L 109.00 47.50 L 110.00 44.00 L 110.20 41.00 L 110.00 37.80 L 108.40 32.00 L 105.40 26.90 L 101.30 22.80 L 96.20 19.80 L 90.50 18.20 L 87.30 18.00 L 84.10 18.20 L 78.30 19.80 L 73.20 22.80 L 69.10 26.90 L 66.10 32.00 L 64.60 37.80 L 64.30 41.00 L 64.60 44.00 L 65.60 47.50 L 67.40 51.80 L 70.20 57.00 L 74.30 63.10 L 79.90 70.40 L 87.30 79.00 Z" fill="url(#linear-gradient-14)" fill-rule="evenodd" group-id="11" id="椭圆形" node-id="68" stroke="none" target-height="61" target-width="45.899994" target-x="64.3" target-y="18"></path></g><g node-id="192"><path d="M 96.30 41.20 L 95.70 44.70 L 95.00 46.30 L 93.50 48.30 L 91.60 49.80 L 90.10 50.60 L 86.80 51.20 L 83.50 50.60 L 82.00 49.80 L 80.10 48.30 L 78.60 46.30 L 77.50 43.00 L 77.30 41.20 L 77.90 37.70 L 78.60 36.20 L 80.10 34.10 L 82.00 32.60 L 83.50 31.80 L 86.80 31.20 L 90.10 31.80 L 91.60 32.60 L 93.50 34.10 L 95.00 36.20 L 95.70 37.70 L 96.30 41.20 Z" fill="url(#linear-gradient-15)" fill-rule="nonzero" group-id="12" id="椭圆形-2" node-id="69" stroke="none" target-height="20" target-width="19" target-x="77.3" target-y="31.2"></path></g><path d="M 97.30 41.20 L 96.70 44.70 L 96.00 46.30 L 94.50 48.30 L 92.60 49.80 L 91.10 50.60 L 87.80 51.20 L 84.50 50.60 L 83.00 49.80 L 81.10 48.30 L 79.60 46.30 L 78.50 43.00 L 78.30 41.20 L 78.90 37.70 L 79.60 36.20 L 81.10 34.10 L 83.00 32.60 L 84.50 31.80 L 87.80 31.20 L 91.10 31.80 L 92.60 32.60 L 94.50 34.10 L 96.00 36.20 L 96.70 37.70 L 97.30 41.20 Z" fill="url(#linear-gradient-16)" fill-rule="nonzero" group-id="13" id="椭圆形-3" node-id="70" stroke="none" target-height="20" target-width="19" target-x="78.3" target-y="31.2"></path></svg>